<?xml version="1.0"?>
<svg xmlns="http://www.w3.org/2000/svg" xmlns:xlink="http://www.w3.org/1999/xlink" xmlns:svgjs="http://svgjs.com/svgjs" version="1.1" width="512px" height="512px" x="0" y="0" viewBox="0 0 24 24" style="enable-background:new 0 0 512 512" xml:space="preserve"><g><path d="m19 1h-14a5.006 5.006 0 0 0 -5 5v8a5.006 5.006 0 0 0 5 5h6v2h-4a1 1 0 0 0 0 2h10a1 1 0 0 0 0-2h-4v-2h6a5.006 5.006 0 0 0 5-5v-8a5.006 5.006 0 0 0 -5-5zm0 10h-2.965l-1.7 2.555a1 1 0 0 1 -.835.445c-.021 0-.042 0-.062 0a1 1 0 0 1 -.833-.551l-2.229-4.461-1.044 1.567a1 1 0 0 1 -.832.445h-3.5a1 1 0 0 1 0-2h2.965l1.7-2.555a.987.987 0 0 1 .897-.445 1 1 0 0 1 .833.551l2.229 4.459 1.044-1.567a1 1 0 0 1 .832-.443h3.5a1 1 0 0 1 0 2z" fill="#ffffff" data-original="#000000"/></g></svg>
