<?xml version="1.0" encoding="UTF-8"?>
<svg width="700pt" height="700pt" version="1.1" viewBox="0 0 700 700" xmlns="http://www.w3.org/2000/svg" xmlns:xlink="http://www.w3.org/1999/xlink">
 <defs>
  <symbol id="b" overflow="visible">
   <path d="m39.078-2.3281c-2.0117 1.043-4.1094 1.8281-6.2969 2.3594s-4.4648 0.79688-6.8281 0.79688c-7.0859 0-12.699-1.9766-16.844-5.9375-4.1367-3.957-6.2031-9.3281-6.2031-16.109 0-6.7891 2.0664-12.164 6.2031-16.125 4.1445-3.9688 9.7578-5.9531 16.844-5.9531 2.3633 0 4.6406 0.26562 6.8281 0.79688s4.2852 1.3242 6.2969 2.375v8.7969c-2.0312-1.3828-4.0391-2.3984-6.0156-3.0469-1.9688-0.64453-4.0469-0.96875-6.2344-0.96875-3.9062 0-6.9844 1.2578-9.2344 3.7656-2.2422 2.5-3.3594 5.9531-3.3594 10.359 0 4.3867 1.1172 7.8359 3.3594 10.344 2.25 2.5 5.3281 3.75 9.2344 3.75 2.1875 0 4.2656-0.32031 6.2344-0.96875 1.9766-0.64453 3.9844-1.6602 6.0156-3.0469z"/>
  </symbol>
  <symbol id="e" overflow="visible">
   <path d="m16.031-40.953v9.0625h10.516v7.2812h-10.516v13.531c0 1.4805 0.28906 2.4805 0.875 3 0.59375 0.52344 1.7656 0.78125 3.5156 0.78125h5.2344v7.2969h-8.7344c-4.0312 0-6.8867-0.83594-8.5625-2.5156-1.6797-1.6875-2.5156-4.5391-2.5156-8.5625v-13.531h-5.0781v-7.2812h5.0781v-9.0625z"/>
  </symbol>
  <symbol id="a" overflow="visible">
   <path d="m26.594-27.234v-17.078h10.266v44.312h-10.266v-4.6094c-1.3984 1.875-2.9453 3.25-4.6406 4.125-1.6875 0.875-3.6406 1.3125-5.8594 1.3125-3.9297 0-7.1562-1.5625-9.6875-4.6875-2.5234-3.125-3.7812-7.1445-3.7812-12.062 0-4.9141 1.2578-8.9375 3.7812-12.062 2.5312-3.125 5.7578-4.6875 9.6875-4.6875 2.1953 0 4.1445 0.44531 5.8438 1.3281 1.707 0.88672 3.2578 2.2578 4.6562 4.1094zm-6.7188 20.656c2.1875 0 3.8516-0.79688 5-2.3906 1.1445-1.5938 1.7188-3.9102 1.7188-6.9531 0-3.0391-0.57422-5.3594-1.7188-6.9531-1.1484-1.5938-2.8125-2.3906-5-2.3906-2.168 0-3.8242 0.79688-4.9688 2.3906-1.1484 1.5938-1.7188 3.9141-1.7188 6.9531 0 3.043 0.57031 5.3594 1.7188 6.9531 1.1445 1.5938 2.8008 2.3906 4.9688 2.3906z"/>
  </symbol>
  <symbol id="d" overflow="visible">
   <path d="m21.875-6.5781c2.1758 0 3.8359-0.79688 4.9844-2.3906 1.1562-1.5938 1.7344-3.9102 1.7344-6.9531 0-3.0391-0.57812-5.3594-1.7344-6.9531-1.1484-1.5938-2.8086-2.3906-4.9844-2.3906-2.1875 0-3.8672 0.80469-5.0312 2.4062-1.168 1.6055-1.75 3.918-1.75 6.9375 0 3.0234 0.58203 5.3359 1.75 6.9375 1.1641 1.6055 2.8438 2.4062 5.0312 2.4062zm-6.7812-20.656c1.4062-1.8516 2.9609-3.2227 4.6719-4.1094 1.707-0.88281 3.6719-1.3281 5.8906-1.3281 3.9375 0 7.1641 1.5625 9.6875 4.6875 2.5195 3.125 3.7812 7.1484 3.7812 12.062 0 4.918-1.2617 8.9375-3.7812 12.062-2.5234 3.125-5.75 4.6875-9.6875 4.6875-2.2188 0-4.1836-0.44531-5.8906-1.3281-1.7109-0.88281-3.2656-2.2539-4.6719-4.1094v4.6094h-10.188v-44.312h10.188z"/>
  </symbol>
  <symbol id="c" overflow="visible">
   <path d="m5.3594-42.516h13.953l9.6875 22.75 9.7344-22.75h13.922v42.516h-10.359v-31.094l-9.7969 22.922h-6.9531l-9.7969-22.922v31.094h-10.391z"/>
  </symbol>
 </defs>
 <g>
  <path d="m393.87 42.07c-2.2891-16.777-16.23-29.504-33.133-30.254-0.058594-0.007812-0.11719-0.007812-0.17578-0.007812-7.0703-0.21094-14.152-0.21094-21.234 0.066406h-0.046875c-16.867 0.75-30.801 13.453-33.086 30.195-0.88672 6.1367-1.832 13.043-2.6602 19.086-0.64062 4.6914-4.0586 8.5273-8.6445 9.707-7.8633 2.0195-15.598 4.5273-23.184 7.4648-0.019531 0.011719-0.042969 0.023437-0.054687 0.023437-4.3867 1.7383-9.3828 0.64453-12.648-2.7617-0.023438-0.023438-0.058594-0.058594-0.082031-0.082032-4.2109-4.3047-8.9844-9.2891-13.289-13.793-11.699-12.215-30.473-14.312-44.59-4.9922-0.046874 0.035156-0.09375 0.070313-0.12891 0.09375-5.8555 3.9922-11.582 8.1562-17.148 12.543-0.011719 0.011719-0.023438 0.023437-0.035157 0.035156-13.207 10.523-17.012 28.98-9.0195 43.867 2.8828 5.4805 6.1836 11.629 9.0664 16.996 2.2383 4.1758 1.7266 9.2891-1.2852 12.938-5.1797 6.2539-9.9609 12.836-14.371 19.672-0.011719 0.023437-0.023438 0.035156-0.035157 0.058593-2.5312 3.9766-7.2109 6.0312-11.855 5.1914-0.035156-0.011719-0.078124-0.011719-0.11328-0.023438-5.9414-1.0039-12.719-2.2305-18.855-3.3359-16.648-3.0117-33.062 6.3203-39 22.164-0.023437 0.046875-0.035156 0.10547-0.058593 0.15234-2.3906 6.6758-4.5742 13.406-6.5 20.219 0 0.023437 0 0.035156-0.011719 0.058593-4.5039 16.273 3.2773 33.438 18.492 40.785 5.5664 2.7422 11.844 5.7773 17.324 8.4258 4.2695 2.0625 6.8594 6.4961 6.5703 11.223-0.51562 8.0977-0.52734 16.238-0.070313 24.359 0.011719 0.023438 0.011719 0.046875 0.011719 0.070313 0.29297 4.7031-2.3008 9.1133-6.5352 11.164-0.046875 0.011719-0.082031 0.035156-0.11719 0.058594-5.3867 2.6719-11.594 5.6719-17.207 8.3789-15.234 7.3477-23.043 24.547-18.527 40.855 0.011719 0.046875 0.023438 0.10547 0.046875 0.16406 1.9844 6.7891 4.1641 13.531 6.6289 20.172 0 0.011719 0.011718 0.035157 0.011718 0.046876 5.9258 15.82 22.316 25.129 38.93 22.129 6.1133-1.0469 12.984-2.2852 18.969-3.3711 4.668-0.83984 9.3828 1.2266 11.914 5.2266 4.3398 6.8594 9.1211 13.441 14.27 19.742 0.011718 0.023438 0.035156 0.035156 0.042968 0.058594 3 3.625 3.5 8.7148 1.2734 12.867-0.023438 0.035157-0.035156 0.082031-0.058594 0.11719-2.7891 5.332-6.043 11.398-8.9961 16.891-8.0117 14.898-4.2109 33.402 9.0195 43.949 0.046874 0.035157 0.09375 0.058594 0.14062 0.09375 5.6016 4.3398 11.328 8.4922 17.219 12.426 0.011719 0.011718 0.023438 0.023437 0.035157 0.035156 14.094 9.3086 32.832 7.2227 44.508-4.9805 4.3398-4.4336 9.1602-9.4766 13.371-13.875 3.2773-3.418 8.3086-4.5117 12.707-2.7734 7.5469 2.9844 15.281 5.5039 23.145 7.582 0.023437 0.011719 0.046874 0.011719 0.070312 0.023437 4.5625 1.168 7.957 4.9922 8.5977 9.6602 0 0.046875 0.011719 0.082031 0.011719 0.12891 0.88672 5.9492 1.8086 12.773 2.6602 18.957 2.2773 16.766 16.219 29.492 33.121 30.242 0.058594 0.007812 0.11719 0.007812 0.17578 0.007812 7.0703 0.21094 14.152 0.21094 21.234-0.066406h0.046875c16.867-0.75 30.801-13.453 33.086-30.195 0.88672-6.1367 1.832-13.043 2.6602-19.086 0.64062-4.6914 4.0586-8.5273 8.6445-9.707 7.8633-2.0195 15.598-4.5273 23.184-7.4648 0.019531-0.011719 0.042969-0.023437 0.054687-0.023437 4.3867-1.7383 9.3828-0.64453 12.648 2.7617 0.023438 0.023438 0.058594 0.058594 0.082031 0.082032 4.2109 4.3047 8.9844 9.2891 13.289 13.793 11.699 12.215 30.473 14.312 44.59 4.9922 0.046874-0.035156 0.09375-0.070313 0.12891-0.09375 5.8555-3.9922 11.582-8.1562 17.148-12.543 0.011719-0.011719 0.023438-0.023437 0.035157-0.035156 13.207-10.523 17.012-28.98 9.0195-43.867-2.8828-5.4805-6.1836-11.629-9.0664-16.996-2.2383-4.1758-1.7266-9.2891 1.2852-12.938 5.1797-6.2539 9.9609-12.836 14.371-19.672 0.011719-0.023437 0.023438-0.035156 0.035157-0.058593 2.5312-3.9766 7.2109-6.0312 11.855-5.1914 0.035156 0.011719 0.078124 0.011719 0.11328 0.023438 5.9414 1.0039 12.719 2.2305 18.855 3.3359 16.648 3.0117 33.062-6.3203 39-22.164 0.023437-0.046875 0.035156-0.10547 0.058593-0.15234 2.3906-6.6758 4.5742-13.406 6.5-20.219 0-0.023437 0-0.035156 0.011719-0.058593 4.5039-16.273-3.2773-33.438-18.492-40.785-5.5664-2.7422-11.844-5.7773-17.324-8.4258-4.2695-2.0625-6.8594-6.4961-6.5703-11.223 0.51562-8.0977 0.52734-16.238 0.070313-24.359-0.011719-0.023438-0.011719-0.046875-0.011719-0.070313-0.29297-4.7031 2.3008-9.1133 6.5352-11.164 0.046875-0.011719 0.082031-0.035156 0.11719-0.058594 5.3867-2.6719 11.594-5.6719 17.207-8.3789 15.234-7.3477 23.043-24.547 18.527-40.855-0.011719-0.046875-0.023438-0.10547-0.046875-0.16406-1.9844-6.7891-4.1641-13.531-6.6289-20.172 0-0.011719-0.011718-0.035157-0.011718-0.046876-5.9258-15.82-22.316-25.129-38.93-22.129-6.1133 1.0469-12.984 2.2852-18.969 3.3711-4.668 0.83984-9.3828-1.2266-11.914-5.2266-4.3398-6.8594-9.1211-13.441-14.27-19.742-0.011718-0.023438-0.035156-0.035156-0.042968-0.058594-3-3.625-3.5-8.7148-1.2734-12.867 0.023438-0.035157 0.035156-0.082031 0.058594-0.11719 2.7891-5.332 6.043-11.398 8.9961-16.891 8.0117-14.898 4.2109-33.402-9.0195-43.949-0.046874-0.035157-0.09375-0.058594-0.14062-0.09375-5.6016-4.3398-11.328-8.4922-17.219-12.426-0.011719-0.011718-0.023438-0.023437-0.035157-0.035156-14.094-9.3086-32.832-7.2227-44.508 4.9805-4.3398 4.4336-9.1602 9.4766-13.371 13.875-3.2773 3.418-8.3086 4.5117-12.707 2.7734-7.5469-2.9844-15.281-5.5039-23.145-7.582-0.023437-0.011719-0.046874-0.011719-0.070312-0.023437-4.5625-1.168-7.957-4.9922-8.5977-9.6602 0-0.046875-0.011719-0.082031-0.011719-0.12891-0.88672-5.9492-1.8086-12.773-2.6602-18.957zm-23.125 3.1367c0.85156 6.2539 1.7969 13.172 2.6836 19.191 1.9492 14.012 12.168 25.469 25.879 29.004 6.8945 1.8203 13.754 4.0508 20.438 6.7109h0.023437c13.219 5.2266 28.293 1.9336 38.129-8.332 4.1641-4.3516 8.9336-9.332 13.297-13.801 0.023438-0.023438 0.046875-0.058594 0.070313-0.082031 3.8867-4.0469 10.105-4.75 14.785-1.6562 5.3867 3.6055 10.637 7.418 15.77 11.387 4.375 3.5117 5.6367 9.6602 2.9648 14.617-2.9844 5.5547-6.2773 11.703-9.1094 17.105-6.6523 12.48-5.125 27.754 3.8945 38.672 4.5156 5.5195 8.75 11.352 12.602 17.43 0 0.011719 0 0.011719 0.011719 0.023437 7.6289 11.996 21.746 18.191 35.746 15.672 5.9258-1.0742 12.715-2.3008 18.863-3.3516 0.035157-0.011719 0.070313-0.011719 0.10547-0.023437 5.5195-0.98828 10.957 2.1016 12.926 7.3398 2.2539 6.0898 4.2578 12.262 6.0781 18.492 1.4727 5.4258-1.1289 11.117-6.1953 13.566-5.6797 2.7422-11.957 5.7773-17.418 8.4844-12.727 6.1953-20.461 19.445-19.586 33.574 0.39453 7.1172 0.39453 14.328-0.058594 21.516v0.023437c-0.88672 14.184 6.9062 27.496 19.703 33.68h0.011719c5.4258 2.625 11.633 5.625 17.234 8.3789 0.023437 0.023437 0.058594 0.035156 0.09375 0.046875 5.0508 2.4375 7.6289 8.1406 6.1445 13.543-1.7617 6.2422-3.7656 12.414-5.9609 18.527-1.9805 5.25-7.4414 8.3398-12.973 7.3398h-0.011719c-6.207-1.1211-13.066-2.3711-19.074-3.3867-13.93-2.4727-27.988 3.7109-35.582 15.66-3.8633 5.9961-8.0977 11.816-12.695 17.371l-0.011719 0.011718c-9.0547 10.953-10.57 26.309-3.8477 38.836 2.8438 5.3086 6.1133 11.387 9.0156 16.906 0.011719 0.035156 0.035156 0.070312 0.046875 0.09375 2.6484 4.9453 1.4023 11.07-2.9844 14.57-5.1016 4.0156-10.352 7.8281-15.703 11.492-4.7031 3.0703-10.934 2.3672-14.82-1.7031-4.3633-4.5508-9.1914-9.5898-13.449-13.941-9.8242-10.195-24.828-13.453-37.988-8.2617-6.6484 2.5898-13.496 4.8203-20.473 6.5938-0.011718 0.011718-0.011718 0.011718-0.023437 0.011718-13.77 3.5469-24.023 15.062-25.949 29.152-0.81641 5.9766-1.75 12.812-2.6484 18.984 0 0.035157-0.011718 0.070313-0.011718 0.10547-0.75781 5.5508-5.375 9.7773-10.977 10.031-6.4883 0.25781-12.973 0.25781-19.461 0.058594-5.6094-0.26953-10.23-4.5156-10.988-10.078-0.85156-6.2539-1.7969-13.172-2.6836-19.191-1.9492-14.012-12.168-25.469-25.879-29.004-6.8945-1.8203-13.754-4.0508-20.438-6.7109h-0.023437c-13.219-5.2266-28.293-1.9336-38.129 8.332-4.1641 4.3516-8.9336 9.332-13.297 13.801-0.023438 0.023438-0.046875 0.058594-0.070313 0.082031-3.8867 4.0469-10.105 4.75-14.785 1.6562-5.3867-3.6055-10.637-7.418-15.77-11.387-4.375-3.5117-5.6367-9.6602-2.9648-14.617 2.9844-5.5547 6.2773-11.703 9.1094-17.105 6.6523-12.48 5.125-27.754-3.8945-38.672-4.5156-5.5195-8.75-11.352-12.602-17.43 0-0.011719 0-0.011719-0.011719-0.023437-7.6289-11.996-21.746-18.191-35.746-15.672-5.9258 1.0742-12.715 2.3008-18.863 3.3516-0.035157 0.011719-0.070313 0.011719-0.10547 0.023437-5.5195 0.98828-10.957-2.1016-12.926-7.3398-2.2539-6.0898-4.2578-12.262-6.0781-18.492-1.4727-5.4258 1.1289-11.117 6.1953-13.566 5.6797-2.7422 11.957-5.7773 17.418-8.4844 12.727-6.1953 20.461-19.445 19.586-33.574-0.39453-7.1172-0.39453-14.328 0.058594-21.516v-0.023437c0.88672-14.184-6.9062-27.496-19.703-33.68h-0.011719c-5.4258-2.625-11.633-5.625-17.234-8.3789-0.023437-0.023437-0.058594-0.035156-0.09375-0.046875-5.0508-2.4375-7.6289-8.1406-6.1445-13.543 1.7617-6.2422 3.7656-12.414 5.9609-18.527 1.9805-5.25 7.4414-8.3398 12.973-7.3398h0.011719c6.207 1.1211 13.066 2.3711 19.074 3.3867 13.93 2.4727 27.988-3.7109 35.582-15.66 3.8633-5.9961 8.0977-11.816 12.695-17.371l0.011719-0.011718c9.0547-10.953 10.57-26.309 3.8477-38.836-2.8438-5.3086-6.1133-11.387-9.0156-16.906-0.011719-0.035156-0.035156-0.070312-0.046875-0.09375-2.6484-4.9453-1.4023-11.07 2.9844-14.57 5.1016-4.0156 10.352-7.8281 15.703-11.492 4.7031-3.0703 10.934-2.3672 14.82 1.7031 4.3633 4.5508 9.1914 9.5898 13.449 13.941 9.8242 10.195 24.828 13.453 37.988 8.2617 6.6484-2.5898 13.496-4.8203 20.473-6.5938 0.011718-0.011718 0.011718-0.011718 0.023437-0.011718 13.77-3.5469 24.023-15.062 25.949-29.152 0.81641-5.9766 1.75-12.812 2.6484-18.984 0-0.035157 0.011718-0.070313 0.011718-0.10547 0.75781-5.5508 5.375-9.7773 10.977-10.031 6.4883-0.25781 12.973-0.25781 19.461-0.058594 5.6094 0.26953 10.23 4.5156 10.988 10.078z" fill-rule="evenodd"/>
  <path d="m350 151.67c-70.828 0-128.33 57.504-128.33 128.33s57.504 128.33 128.33 128.33 128.33-57.504 128.33-128.33-57.504-128.33-128.33-128.33zm0 23.332c57.949 0 105 47.051 105 105s-47.051 105-105 105-105-47.051-105-105 47.051-105 105-105z" fill-rule="evenodd"/>
  <use x="70" y="735" xlink:href="#b"/>
  <use x="220.503906" y="735" xlink:href="#e"/>
  <use x="287.953125" y="735" xlink:href="#a"/>
  <use x="350.015625" y="735" xlink:href="#d"/>
  <use x="450.105469" y="735" xlink:href="#c"/>
  <use x="547.519531" y="735" xlink:href="#a"/>
  <use x="648.945312" y="735" xlink:href="#b"/>
 </g>
</svg>
