<?xml version="1.0"?>
<svg xmlns="http://www.w3.org/2000/svg" xmlns:xlink="http://www.w3.org/1999/xlink" xmlns:svgjs="http://svgjs.com/svgjs" version="1.1" width="512px" height="512px" x="0" y="0" viewBox="0 0 24 24" style="enable-background:new 0 0 512 512" xml:space="preserve"><g><path d="m24 9a3 3 0 1 0 -4 2.816v4.184a6 6 0 0 1 -12 0v-.08a7.006 7.006 0 0 0 6-6.92v-6a3 3 0 0 0 -3-3h-3v2h3a1 1 0 0 1 1 1v6a5 5 0 0 1 -10 0v-6a1 1 0 0 1 1-1h3v-2h-3a3 3 0 0 0 -3 3v6a7.006 7.006 0 0 0 6 6.92v.08a8 8 0 0 0 16 0v-4.184a3 3 0 0 0 2-2.816zm-3 1a1 1 0 1 1 1-1 1 1 0 0 1 -1 1z" fill="#ffffff" data-original="#000000"/></g></svg>
